<svg width="34" height="34" viewBox="0 0 34 34" fill="none" xmlns="http://www.w3.org/2000/svg">
<path d="M16.9852 0.831445C7.80801 0.827734 0.375 8.25703 0.375 17.4268C0.375 24.6779 5.0248 30.8418 11.5004 33.1055C12.3725 33.3244 12.2389 32.7047 12.2389 32.2816V29.4057C7.20312 29.9957 6.99902 26.6633 6.66133 26.1066C5.97851 24.9414 4.36426 24.6445 4.84668 24.0879C5.99336 23.4979 7.1623 24.2363 8.5168 26.2365C9.49648 27.6875 11.4076 27.4426 12.3762 27.2014C12.5877 26.3293 13.0404 25.55 13.6639 24.9451C8.44629 24.01 6.27168 20.826 6.27168 17.0408C6.27168 15.2039 6.87656 13.5154 8.06406 12.1535C7.30703 9.9084 8.13457 7.98613 8.2459 7.70039C10.402 7.50742 12.6434 9.24414 12.8178 9.38145C14.0424 9.05117 15.4414 8.87676 17.0074 8.87676C18.5809 8.87676 19.9836 9.05859 21.2193 9.39258C21.6387 9.07344 23.7168 7.58164 25.7207 7.76348C25.8283 8.04922 26.6373 9.92695 25.9248 12.1424C27.1271 13.508 27.7395 15.2113 27.7395 17.052C27.7395 20.8445 25.55 24.0322 20.3176 24.9525C20.7657 25.3933 21.1216 25.9189 21.3644 26.4987C21.6071 27.0785 21.7319 27.7009 21.7314 28.3295V32.5043C21.7611 32.8383 21.7314 33.1686 22.2881 33.1686C28.8602 30.9531 33.5916 24.7447 33.5916 17.4305C33.5916 8.25703 26.1549 0.831445 16.9852 0.831445V0.831445Z" fill="#60A979"/>
</svg>
