<svg width="100" height="100" viewBox="0 0 100 100" fill="none" xmlns="http://www.w3.org/2000/svg">
<path d="M71.2508 96.7137C65.0508 90.3897 56.1423 75.9273 56.1423 75.9273C56.1423 75.9273 74.4592 58.0651 75.6842 57.8978C76.9092 57.7305 97.6428 69.2598 97.6428 69.2598C97.6428 69.2598 94.2594 91.6756 88.501 95.5247C82.726 99.3737 71.2508 96.7137 71.2508 96.7137V96.7137Z" fill="#A3A3A3"/>
<path d="M72.9508 64.9175C72.9508 64.9175 68.0424 71.0213 65.9757 78.6401C64.5341 83.9512 64.8091 88.8307 64.8091 88.8307L58.5173 79.9524L63.1591 72.8445L72.9508 64.9175V64.9175Z" fill="#646464"/>
<path d="M9.04167 14.2201C4.00829 26.9561 3.94995 43.2946 3.94995 43.2946L28.0169 55.1587L50.1171 93.1995C50.1171 93.1995 59.3172 79.0718 61.5256 73.5934L9.04167 14.2201Z" fill="#A3A3A3"/>
<path d="M76.3176 72.1047L90.2844 92.0984C90.2844 92.0984 103.493 71.2416 90.8344 62.1167C87.9844 60.0645 75.9343 57.8537 74.3593 58.3998L76.3176 72.1047Z" fill="#646464"/>
<path d="M46.3172 93.1994L46.2005 93.217C46.0838 93.2963 45.9588 93.3667 45.8422 93.446C45.9838 93.3755 46.1755 93.2698 46.3172 93.1994ZM90.176 55.0441C87.4926 53.3354 37.2504 23.3713 31.267 18.8353L5.9084 21.1517L0.183335 28.4798L2.07502 30.7698L0 35.8695L28.6503 52.8421C30.3253 57.1139 39.8254 79.7851 44.4838 91.3498C44.4838 91.3498 52.4589 84.0041 56.134 78.7282L50.1172 93.1906L57.4256 96.881C57.4256 96.881 58.7257 79.6266 68.5591 69.207C78.2509 58.9459 84.9926 60.7515 89.426 65.9041C96.4594 74.0777 89.4427 90.3369 81.2342 89.6939C74.8675 89.2006 79.0759 79.1245 78.7009 72.5275C78.3509 66.3356 75.6258 64.2482 74.8675 64.0456C74.1092 63.843 71.2508 68.0355 70.3175 71.911C65.6591 91.2176 69.4924 98.2639 76.3175 99.6379C86.6093 101.699 94.5927 94.8112 98.3344 82.8326C102.201 70.4489 99.2761 60.8308 90.176 55.0441V55.0441Z" fill="#CFCFCF"/>
<path d="M74.7175 69.8235C74.7175 69.8235 76.3009 76.1299 74.3092 84.0217C73.2758 81.8902 73.3008 78.8868 73.5092 76.4998C73.7842 73.2938 74.7175 69.8235 74.7175 69.8235V69.8235ZM77.6592 93.1994C78.6009 93.4372 79.5092 93.675 80.4259 93.7103C81.3343 93.7631 82.2259 93.6838 83.0843 93.4813C84.7926 93.0321 86.351 92.1072 87.7343 90.8918C89.1344 89.7027 90.3844 88.267 91.5594 86.7521C92.7344 85.2284 93.8427 83.6253 94.9511 81.9519C94.4761 83.9336 93.6511 85.8097 92.6344 87.5536C91.6085 89.3349 90.3135 90.9267 88.801 92.2658C87.251 93.5869 85.3593 94.6175 83.301 94.8377C82.2759 94.9433 81.2509 94.8288 80.2926 94.5558C79.3259 94.274 78.4509 93.7807 77.6592 93.1994V93.1994Z" fill="#A3A3A3"/>
<path d="M90.5345 55.1586C90.5345 55.1586 78.1343 41.9997 60.1508 29.7834C60.1508 29.7834 43.8089 6.20492 41.9422 3.96774C38.3589 -0.330456 31.0505 -0.577073 24.9337 0.620785C12.3252 3.09577 4.82517 12.9253 0.0334473 20.9227L28.2338 48.9843L43.9339 84.0041C52.009 77.2309 53.809 68.3702 65.4675 59.8619C79.926 49.3014 90.5345 55.1586 90.5345 55.1586Z" fill="#EEEEEE"/>
<path d="M64.2924 67.5512C65.1507 66.3269 66.0591 65.1114 67.0841 64.0104C68.1591 62.9711 69.2008 61.8613 70.4591 61.0158C71.6258 60.0381 72.9925 59.3775 74.3258 58.6289C75.0175 58.3206 75.7425 58.0828 76.4592 57.8009C76.8092 57.6512 77.1759 57.5455 77.5509 57.4662L78.6675 57.1932C79.4092 56.9994 80.1842 56.973 80.9509 56.9025C81.7092 56.8057 82.4843 56.8497 83.2509 56.9025C84.7843 57.0259 86.3093 57.3782 87.7343 57.9595C88.0926 58.1004 88.4343 58.2942 88.7843 58.4615C89.126 58.6465 89.4843 58.7786 89.7927 59.0252C90.4343 59.4656 91.076 59.8884 91.6427 60.4257C92.7677 61.4738 93.8094 62.6981 94.3011 64.1866L94.1594 64.2747C93.4094 63.0063 92.3094 62.0199 91.1427 61.1919C89.9843 60.3376 88.6677 59.7651 87.3343 59.2895C84.6343 58.4263 81.7342 58.347 78.9759 58.9283L77.9425 59.1573C77.5925 59.219 77.2509 59.3159 76.9259 59.448C76.2592 59.6858 75.5842 59.9148 74.9175 60.1614C73.6342 60.7868 72.3258 61.3681 71.1425 62.196C69.8925 62.9095 68.7841 63.8519 67.6341 64.7239C66.5091 65.6311 65.4841 66.6792 64.4091 67.648L64.2924 67.5512V67.5512ZM0.18335 28.4622L17.0169 43.0127L1.4417 32.4257C1.4417 32.4257 1.75837 31.633 1.90837 31.1926L0.18335 28.4622V28.4622Z" fill="#A3A3A3"/>
<path opacity="0.7" d="M34.992 3.48334L43.6921 14.9511C44.2255 14.9158 44.7255 14.8982 45.2088 14.8982L36.6254 3.58903C36.1837 3.53618 35.6254 3.50095 34.992 3.48334V3.48334ZM27.5336 4.25842L37.6587 16.3779C38.0671 16.2018 38.4754 16.0432 38.8837 15.9111L28.9086 3.96776C28.4586 4.05584 28.0003 4.15273 27.5336 4.25842V4.25842ZM48.8422 19.0379C48.3672 19.0467 47.8838 19.0643 47.3838 19.0995C50.1005 23.3537 53.8839 28.5503 58.0506 32.1086C58.6256 32.0117 59.2006 31.9413 59.7923 31.8972C55.6173 28.6472 51.7089 23.433 48.8422 19.0379V19.0379ZM42.7171 19.8746C42.3088 19.9891 41.9004 20.1124 41.4921 20.2534C43.8838 24.1464 47.7172 29.9595 51.6922 34.1785C52.0839 33.9847 52.4839 33.7997 52.8839 33.6236C49.0172 29.6072 45.1671 23.8381 42.7171 19.8746V19.8746ZM37.5171 22.2439C37.2337 22.4377 36.9587 22.6315 36.6921 22.8428C36.6337 22.8869 36.5754 22.9397 36.5254 22.9838C38.6921 26.4628 42.7755 32.7428 46.6672 37.3316C46.9922 37.085 47.3255 36.8384 47.6672 36.5918C43.8338 32.091 39.6921 25.723 37.5171 22.2439V22.2439ZM32.417 27.1675C34.6254 30.5408 38.7671 36.7327 42.3254 41.1895C42.6088 40.8988 42.9088 40.6081 43.2088 40.3175C39.8838 36.1338 35.842 30.1621 33.2503 26.1986C32.9753 26.5069 32.692 26.8328 32.417 27.1675ZM28.7753 32.0294C31.317 35.7462 35.392 41.621 38.4587 45.6286C38.7087 45.3027 38.9754 44.968 39.2504 44.6333C36.6587 41.2071 33.042 36.0897 29.5336 30.946C29.267 31.3159 29.017 31.677 28.7753 32.0294V32.0294ZM25.4336 37.2788L34.992 50.6842C35.1504 50.4112 35.3837 50.0325 35.692 49.5392L26.1253 36.1162C25.8169 36.627 25.5836 37.0234 25.4336 37.2788V37.2788Z" fill="#A3A3A3"/>
<path d="M52.9589 39.7009L50.3589 41.8412L59.9923 56.2596C59.9923 56.2596 62.1174 54.0752 63.6507 53.4763L52.9589 39.7009Z" fill="#A3A3A3"/>
<path d="M33.842 18.2452C24.7169 25.6085 21.1919 33.8967 21.1919 33.8967L7.54175 20.3767C7.54175 20.3767 14.7002 8.0282 23.2086 5.61487L33.842 18.2452V18.2452Z" fill="#C2C2C2"/>
<path d="M3.35841 24.2873L2.3584 25.6437L16.6336 37.4726L3.35841 24.2873ZM7.54179 20.3767L21.1919 33.8966C21.1919 33.8966 23.1753 29.2373 28.017 23.8029L27.967 17.5317L16.6252 20.0684L16.6336 15.6028L10.5585 16.0344C8.6918 18.483 7.54179 20.3767 7.54179 20.3767V20.3767Z" fill="#A3A3A3"/>
<path opacity="0.7" d="M56.4839 37.9041L68.1756 51.5209C68.734 51.2919 69.2923 51.0982 69.834 50.9396L58.1922 37.3932L56.4839 37.9041ZM64.3673 36.715C63.7006 36.671 62.9423 36.671 62.1256 36.7239L75.4757 49.592C75.4757 49.592 76.8341 49.1252 77.6674 49.4247L64.3673 36.715V36.715ZM46.3171 46.2715L55.0338 61.553C55.4005 61.0774 55.7672 60.6106 56.1422 60.1526L47.5004 45.012C47.1087 45.4171 46.7087 45.8399 46.3171 46.2715ZM41.9337 51.2215L50.0671 68.0531C50.4755 67.5423 50.8588 67.0491 51.2005 66.6087L43.1087 49.8563C42.7087 50.3143 42.317 50.7723 41.9337 51.2215ZM37.4836 56.6294L44.7837 74.6854C45.1254 74.2538 45.5254 73.7518 45.9587 73.2145L38.6587 55.1674C38.1586 55.7751 37.7586 56.2771 37.4836 56.6294Z" fill="#A3A3A3"/>
<path d="M28.4921 56.9818L27.2587 55.0352C27.1491 54.8683 27.1016 54.6644 27.1254 54.4627C27.3087 52.5867 28.8504 42.8453 41.4839 34.0111C51.0423 27.326 57.6424 27.8632 59.2007 28.0482C59.4174 28.0746 59.6174 28.1891 59.7674 28.3565L61.3258 30.1885C61.4841 30.3734 61.3674 30.6729 61.1258 30.6729C58.9674 30.6641 51.5423 31.0693 43.2756 36.856C31.9671 44.7654 29.3421 54.6213 28.8671 56.9113C28.8171 57.0963 28.5921 57.1315 28.4921 56.9818V56.9818Z" fill="#DEA076"/>
<path d="M61.1173 30.6729C59.3173 30.6993 57.5256 30.9812 55.7839 31.4216C54.0422 31.8443 52.3255 32.4257 50.6755 33.1479C47.3662 34.5839 44.2482 36.47 41.4004 38.7585C38.5116 40.9885 35.936 43.6395 33.7503 46.6326C32.6586 48.1299 31.6836 49.7153 30.8586 51.3976C30.0169 53.0711 29.3253 54.8327 28.9003 56.6823C29.4669 52.8949 31.167 49.3718 33.2586 46.2363C35.3753 43.1007 38.0254 40.3967 40.9254 38.0715C43.8504 35.799 47.0421 33.8613 50.4588 32.5314C53.8589 31.219 57.5006 30.3999 61.1173 30.6729V30.6729Z" fill="#C17E52"/>
</svg>
