<svg width="100" height="100" viewBox="0 0 100 100" fill="none" xmlns="http://www.w3.org/2000/svg">
<path d="M64.6667 0L29.3333 0.793651L26.6667 34.127L60 30.1587L74 25.3968L64.6667 0Z" fill="#A9A9A9"/>
<path d="M32 72.2222L53.3333 51.5873L60 30.1587L26.6667 34.127L32 72.2222Z" fill="#949494"/>
<path d="M0 45.2381L19.3333 91.2698L32 72.2222L26.6667 34.127L0 45.2381Z" fill="#7C7C7C"/>
<path d="M19.3333 91.2698L64 100L53.3333 51.5873L32 72.2222L19.3333 91.2698Z" fill="#686868"/>
<path d="M64 100L98 77.7778L53.3333 51.5873L64 100Z" fill="#969696"/>
<path d="M53.3333 51.5873L98 77.7778L60 30.1587L53.3333 51.5873Z" fill="#BFBFBF"/>
<path d="M100 37.3016L74 25.3968L60 30.1587L98 77.7778L100 37.3016Z" fill="#B5B5B5"/>
<path d="M29.3333 0.793651L0 45.2381L26.6667 34.127L29.3333 0.793651Z" fill="#8B8A8A"/>
</svg>
