<svg width="108" height="100" viewBox="0 0 108 100" fill="none" xmlns="http://www.w3.org/2000/svg">
<path d="M60.5028 46.0146C60.5028 48.5823 58.4213 50.6638 55.8537 50.6638C53.286 50.6638 51.2046 48.5823 51.2046 46.0146C51.2046 43.447 53.286 41.3655 55.8537 41.3655C58.4213 41.3655 60.5028 43.447 60.5028 46.0146Z" fill="#EDBA6F"/>
<path d="M68.7317 2.99155C61.4035 7.92617 59.229 14.5521 59.229 14.5521L50.06 37.2649L69.7435 36.0244L84.1583 0.714784C84.1583 0.714784 76.0599 -1.94306 68.7317 2.99155Z" fill="#838383"/>
<path d="M52.8527 66.2838L59.203 61.8437L62.1264 54.6828L42.5626 55.837L41.7867 57.7589C41.5041 60.1082 40.4292 62.1976 39.2985 63.9183L52.7543 66.1609L52.8657 66.3095L52.8527 66.2838Z" fill="#838383"/>
<path fill-rule="evenodd" clip-rule="evenodd" d="M86.0696 53.2702C86.0696 53.2702 92.9994 53.3363 100.104 47.8521C107.208 42.3679 107.482 33.6462 107.482 33.6462L106.994 35.1667L75.6125 37.1038L69.1397 37.5034L49.4736 38.7173L44.2308 39.0409L41.884 37.7801L35.5747 42.4787L35.5551 42.4576L35.6559 42.6144L34.413 49.5035L33.1702 56.3927C35.1624 55.8612 37.4801 55.5048 39.7709 56.0017L42.5626 55.837L62.1264 54.6828L86.0696 53.2702ZM55.8537 50.6638C58.4213 50.6638 60.5028 48.5823 60.5028 46.0146C60.5028 43.447 58.4213 41.3655 55.8537 41.3655C53.286 41.3655 51.2046 43.447 51.2046 46.0146C51.2046 48.5823 53.286 50.6638 55.8537 50.6638Z" fill="#989696"/>
<path d="M41.884 37.7801L44.2308 39.0409L49.4736 38.7173L69.1397 37.5034L75.6125 37.1038L106.994 35.1667L107.482 33.6462L69.7435 36.0244L50.06 37.2649L41.884 37.7801Z" fill="#B8B8B8"/>
<path fill-rule="evenodd" clip-rule="evenodd" d="M0.0058735 46.8986C-0.2184 54.0345 6.00181 62.0251 14.9321 62.1101C19.4416 62.153 21.83 61.0654 26.6069 58.8902L29.7113 57.4921C29.8043 57.4614 29.8998 57.4295 29.9976 57.3965L30.2087 57.3251L30.4057 57.2581L30.4149 57.255L30.7217 57.1508C31.3855 56.9259 32.1294 56.6798 32.9296 56.4581C33.0092 56.436 33.0894 56.4142 33.1702 56.3927L34.413 49.5035L35.6559 42.6144L35.5551 42.4576L26.6339 32.8761C21.3935 28.0675 15.2086 28.8018 15.2086 28.8018C5.14905 30.2921 0.0640353 39.0409 0.0058735 46.8986ZM14.9564 55.4836C20.0233 56.2706 24.8087 52.8856 25.6448 47.9229C26.4809 42.9602 23.0511 38.2992 17.9841 37.5122C12.9172 36.7252 8.13179 40.1102 7.29569 45.0729C6.4596 50.0356 9.88939 54.6966 14.9564 55.4836Z" fill="#EFB660"/>
<path d="M37.3207 98.7002C44.4413 101.853 54.2311 99.357 58.8445 90.2694C58.8445 90.2694 61.5138 84.6212 58.7878 78.0179C59.3595 79.7478 60.5028 90.1814 53.5291 95.6054C46.5554 101.029 41.9063 99.4797 37.3207 98.7002Z" fill="#BA8C47"/>
<path fill-rule="evenodd" clip-rule="evenodd" d="M28.1649 79.3849C25.3625 87.9236 30.6947 96.5256 37.3207 98.7002C41.9063 99.4797 46.5554 101.029 53.5291 95.6054C60.5028 90.1814 59.3595 79.7478 58.7878 78.0179L52.8657 66.3095L52.7543 66.1609L39.2985 63.9183C38.7923 64.6886 38.2749 65.3851 37.8125 65.9979L37.6178 66.2554L37.6114 66.2639L37.4882 66.4268C37.3782 66.5723 37.2729 66.7122 37.1732 66.8465C36.3381 67.7696 35.5804 68.5885 34.8904 69.3342L34.8878 69.337C31.3493 73.1611 29.5801 75.0732 28.1649 79.3849ZM34.2585 81.5796C35.1701 76.4876 39.8224 73.0602 44.6498 73.9244C49.4772 74.7886 52.6517 79.6171 51.7401 84.7091C50.8285 89.8011 46.1762 93.2285 41.3488 92.3643C36.5214 91.5001 33.3469 86.6716 34.2585 81.5796Z" fill="#D9A250"/>
</svg>
